<?xml version="1.0" encoding="UTF-8" standalone="no"?>
<svg width="214px" height="214px" viewBox="0 0 214 214" version="1.1" xmlns="http://www.w3.org/2000/svg" xmlns:xlink="http://www.w3.org/1999/xlink">
    <!-- Generator: Sketch 3.8.1 (29687) - http://www.bohemiancoding.com/sketch -->
    <title>Slice 1</title>
    <desc>Created with Sketch.</desc>
    <defs></defs>
    <g id="Page-1" stroke="none" stroke-width="1" fill="none" fill-rule="evenodd">
        <g id="JStylo">
            <rect id="Black-background" fill="#000000" x="0" y="0" width="214" height="214" rx="8"></rect>
            <path d="M148.46526,4 L204.998437,4 C207.760724,4 210,6.24326816 210,8.99009183 L210,205.009908 C210,207.76586 207.763317,210 204.998437,210 L106,210 L106,155 C106,155 131.173771,22.3770489 138,11 C139.98057,7.69905054 144.140393,5.26980246 148.46526,4 Z" id="White-background" fill="#FFFFFF"></path>
            <path d="M154.000003,19 C154.000003,12.7607383 125.000003,9.00000001 110,9 C94.9999967,8.99999999 68.0000005,10 53.0000005,21 C38.0000004,32 40,78 40,78 L40,103 C40,103 43,113 55,122 C55,121.416129 50,120 47,117 C44,114 42.2483869,112.583871 41,113 C40,114 47.2376611,133.721021 58,153 C69.7160537,173.987404 85.3515017,194.309074 89,199 C96,208 110,205 110,205 C110,205 154.000003,78.0940716 154.000003,19 Z" id="Mask" fill="#FFFFFF"></path>
            <path d="M103,210 C103,210 98.174921,192 98,186 C97.825079,180 102,180 102,174 C102,168 98,166 87,163 C98,166 103,164 104,166 C105,168 107,176 107,179 C107,182 106,185 106,190 L106,210 L103,210 Z" id="Chin-Thing" fill="#000000"></path>
            <path d="M39,79 C44,69 51.9999998,55 71.9999998,55 C91.9999998,55 97.9999998,71 113,73 C113,73 110.000004,98 102,102 C102,102 103.254043,102.908214 102.000004,112 C100.745964,121.091786 97.9999998,130 97.9999998,132 C97.9999998,134 103,134 103,134 L103.000004,137 C103.000004,137 101.000004,137 98,137 C94.9999964,137 91.9999998,132 92.9999998,129 C93.9999998,126 93,122 93,122 C93,122 91.4280918,118.762544 88.9999998,122 C86.5719078,125.237456 87.9999998,131 84.9999998,131 C81.9999998,131 80.999999,125 80.999999,124 C80.999999,123.542002 80.999999,119 82.999999,118 C84.999999,117 89.3316096,114.069424 89.9999998,113 C91.2331884,111.026898 91,107 91,107 C91,107 86.999999,108 84.999999,112 C82.999999,116 77.9033373,116.435476 69.9999999,117 C56.0000001,118 47,110 39,99 C31,88 34.0000001,89 39,79 Z M74,91 C65,89 56,90.0120289 56,89 C56,88.0216009 61,84 64,82 C67,80 71,79.0005739 75,79 C85.9984044,78.9984221 93,90 93,91 C93,92 93,94 89,94 C85,94 83,93 74,91 Z" id="Combined-Shape" fill="#000000"></path>
            <path d="M75,165 C73,164 73.8725067,166.583943 75.0000001,169 C75.4766419,170.021375 77,172 77.9999998,175 C78.9999995,178 78.9999998,180 80.9999998,180 C82.1086502,180 77,166 75,165 Z" id="Cheek" fill="#000000"></path>
            <path d="M94,57 C94,54 90.2012732,51.7666442 84,49 C79.1661488,46.8434193 73.3804229,46 69,46 C66.3771508,46 60.4424145,47.6805023 58,49 C51.1303483,52.7112823 49,59 49,59 C49,59 57,51 67,51 C79,51 94,60 94,57 Z" id="Eyebrow" fill="#000000"></path>
            <path d="M104,154 C104,154 102.299682,155 101,155 C99.7003185,155 97,154 97,154 L104,154 Z" id="Lib-plumper" fill="#000000"></path>
            <path d="M102,142 C102,142 102.000001,145 102,147 C102,149 98.9999995,154 94,154 C89.0000005,154 79.3616579,149.7332 78,149 C76.6383421,148.2668 79.9999997,147 82,148 C84.0000003,149 93.0000005,148 95.0000005,147 C97.0000005,146 102,142 102,142 Z" id="Lip" fill="#000000"></path>
            <path d="M131.948998,212 C130.354606,199.705598 129,176 129,176 C129,176 135.222221,174 138,175 C140.777779,176 133.331417,172.665709 134,173 C136,174 142,172 142,172 C142,172 139,172 136,171 C133,170 134,169 134,169 C134,169 141.669988,167.728129 144,167 C147.003322,166.061462 150,164 150,164 L139,165 C139,165 144.045255,164.914556 149,162 C153.954745,159.085444 155,155 155,155 C155,155 144.910975,159.191396 142,160 C138.910975,160.858062 139,160 139,160 C139,160 150,156 153,154 C156,152 156.481759,151.036481 157,150 C159,146 149,155 144,155 C144,155 157,147 158,145 C159,143 158,130 158,129 C158,128 150,132 150,132 C150,132 158,127 158,125 C158,123 158,124 157,119 C156,114 157,108 157,108 C157,108 149.49087,113.754565 147,115 C142.824203,117.087898 136,119 136,119 C136,119 157,109 158,103 C159,97 158,101 159,96 C160,91 162,82 162,82 L154,84 C154,84 162,81 163,78 C164,75 164,71 164,71 C164,71 158.856223,73.911915 156,75 C151.856223,76.5785817 143,79 143,79 C143,79 153,75 158,70 C163,65 164,64 165,60 C166,56 165,48 165,48 L162,51 C161,52 158,52 158,52 C158,52 165,47 165,45 L165,33 C165,33 160.365502,36.2114992 158,37 C155.365502,37.8781659 150,38 150,38 C150,38 164,31 165,28 C166,25 165,20 164,16 C163,12 157,-1.34477207e-10 155,1.5063506e-12 C153,1.37490019e-10 147,4 146,6 C145,8 145.69369,8.9279152 146,10 C146.360357,11.2612485 148,13 148,13 C148,13 146,13 145,11 C144,9 144,7 144,7 C144,7 142,10 143,13 C144,16 146,21 146,21 C146,21 144.335903,19.4173853 143,17 C142.084249,15.342902 142,14 141,12 C140,10 140,11 140,11 C140,11 135.369008,15.3944821 132,22 C126.785168,32.2245731 122,46.5699304 122,49 C122,53 123.838371,55.2411323 125,58 C126.505038,61.5744656 130,68 130,68 C130,68 125.880478,62.3430714 124,59 C122.880478,57.009738 121,52 121,52 C121,52 120,56.937427 120,60 C120,63.062573 120.465404,64.8616149 121,67 C121.798737,70.1949483 124,76 124,76 C124,76 121.833149,73.3885818 121,72 C119.833149,70.0552484 118,66 118,66 C118,66 110,90 110,94 C110,98 111.040268,99.5046972 112,102 C112.706935,103.83803 115,107 115,107 C115,107 112.840865,105.981009 112,105 C110.840865,103.647676 109,99 109,99 C109,99 108,101 108,106 C108,111 111.069914,114.490753 113,118 C114.736581,121.157419 119,125 119,125 C119,125 114.515468,122.894335 113,121 C110.515468,117.894335 107,110 107,110 C107,110 107.280771,118.062858 107,122 C106.791776,124.919842 106,123.72254 106,125 C106,128 108.375883,130.855786 109,132 C110.401581,134.25762 113,138 113,138 C113,138 110.581461,135.807384 109,134 C108.248128,133.140718 106,130 106,130 C106,130 109.936868,137.052669 112,140 C114.603535,143.719336 120,150 120,150 C120,150 114.624615,146.999559 112,144 C109.957948,141.666226 106,133 106,133 C106,133 105,139 105,142 C105,145 109.291299,149.749559 112,153 C114.291299,155.749559 119,157 119,157 C119,157 116.40416,158.030354 114,157 C111.737494,156.030354 106,153 106,153 C106,153 106,156 107,157 C108,158 110,161 113,162 C116,163 118,164 118,164 L116,164 C113,164 108,161 108,161 C108,161 108,163 109,164 C110,165 111,167 115,167 L121,167 C121,167 121,168 119,168 C117,168 112,169 112,169 C112,169 116.59413,168.687584 118,169 C119.59413,169.354251 121,171 121,171 C121,171 119,171 116,172 C113,173 111,175 111,175 C111,175 118,173 120,173 C122,173 123,175 123,175 C123,175 124.541503,196.581044 126.271186,212 L131.948998,212 Z" id="Combined-Shape" fill="#000000"></path>
        </g>
    </g>
</svg>